<mxfile host="65bd71144e">
    <diagram name="Pagina-1" id="ogliidfsjKwVIosgU6xk">
        <mxGraphModel dx="532" dy="516" grid="1" gridSize="10" guides="1" tooltips="1" connect="1" arrows="1" fold="1" page="1" pageScale="1" pageWidth="827" pageHeight="1169" background="#ffffff" math="0" shadow="0">
            <root>
                <mxCell id="0"/>
                <mxCell id="1" parent="0"/>
                <mxCell id="ey2NyQJeY1eSOmOU83uW-1" value="EMPLOYEE" style="swimlane;childLayout=stackLayout;horizontal=1;startSize=50;horizontalStack=0;rounded=0;fontSize=14;fontStyle=0;strokeWidth=2;resizeParent=0;resizeLast=1;shadow=0;dashed=0;align=center;arcSize=4;whiteSpace=wrap;html=1;fillColor=#008a00;fontColor=#ffffff;strokeColor=#000000;swimlaneFillColor=#FFFFFF;" parent="1" vertex="1">
                    <mxGeometry x="50" y="120" width="190" height="210" as="geometry"/>
                </mxCell>
                <mxCell id="ey2NyQJeY1eSOmOU83uW-2" value="&lt;font color=&quot;#000000&quot;&gt;&lt;u&gt;employee ID&lt;/u&gt;&lt;br&gt;&lt;u&gt;name&lt;br&gt;last name&lt;br&gt;birthday&lt;br&gt;mobile phone&lt;br&gt;email&lt;br&gt;type&amp;nbsp;&lt;/u&gt;(operational / administrative)&lt;br&gt;&lt;br&gt;military rank&lt;br&gt;current status&lt;/font&gt;" style="align=left;strokeColor=none;fillColor=none;spacingLeft=4;fontSize=12;verticalAlign=top;resizable=0;rotatable=0;part=1;html=1;" parent="ey2NyQJeY1eSOmOU83uW-1" vertex="1">
                    <mxGeometry y="50" width="190" height="160" as="geometry"/>
                </mxCell>
                <mxCell id="ey2NyQJeY1eSOmOU83uW-3" value="EVENT / ASSIGNMENT" style="swimlane;childLayout=stackLayout;horizontal=1;startSize=50;horizontalStack=0;rounded=0;fontSize=14;fontStyle=0;strokeWidth=2;resizeParent=0;resizeLast=1;shadow=0;dashed=0;align=center;arcSize=4;whiteSpace=wrap;html=1;fillColor=#008a00;fontColor=#ffffff;strokeColor=#000000;swimlaneFillColor=#FFFFFF;" parent="1" vertex="1">
                    <mxGeometry x="320" y="120" width="170" height="120" as="geometry"/>
                </mxCell>
                <mxCell id="ey2NyQJeY1eSOmOU83uW-4" value="&lt;font style=&quot;&quot; color=&quot;#000000&quot;&gt;&lt;u&gt;event ID / assignment ID&lt;br&gt;employee ID&lt;br&gt;date&lt;br&gt;description&lt;/u&gt;&lt;/font&gt;" style="align=left;strokeColor=none;fillColor=none;spacingLeft=4;fontSize=12;verticalAlign=top;resizable=0;rotatable=0;part=1;html=1;" parent="ey2NyQJeY1eSOmOU83uW-3" vertex="1">
                    <mxGeometry y="50" width="170" height="70" as="geometry"/>
                </mxCell>
                <mxCell id="ey2NyQJeY1eSOmOU83uW-10" value="" style="endArrow=classic;html=1;rounded=0;strokeColor=#000000;" parent="1" edge="1">
                    <mxGeometry relative="1" as="geometry">
                        <mxPoint x="320" y="150" as="sourcePoint"/>
                        <mxPoint x="240" y="150" as="targetPoint"/>
                    </mxGeometry>
                </mxCell>
                <mxCell id="ey2NyQJeY1eSOmOU83uW-11" value="0.n" style="edgeLabel;resizable=0;html=1;align=left;verticalAlign=bottom;labelBackgroundColor=none;fontColor=#000000;" parent="ey2NyQJeY1eSOmOU83uW-10" connectable="0" vertex="1">
                    <mxGeometry x="-1" relative="1" as="geometry">
                        <mxPoint x="-20" as="offset"/>
                    </mxGeometry>
                </mxCell>
                <mxCell id="ey2NyQJeY1eSOmOU83uW-12" value="1.1" style="edgeLabel;resizable=0;html=1;align=right;verticalAlign=bottom;labelBackgroundColor=none;fontColor=#000000;" parent="ey2NyQJeY1eSOmOU83uW-10" connectable="0" vertex="1">
                    <mxGeometry x="1" relative="1" as="geometry">
                        <mxPoint x="27" as="offset"/>
                    </mxGeometry>
                </mxCell>
            </root>
        </mxGraphModel>
    </diagram>
</mxfile>